<svg xmlns="http://www.w3.org/2000/svg" width="100" height="100"><path d="M87.047 33.686V44.24L56.536 26.624 70.07 18.81l12.581 7.263a8.815 8.815 0 0 1 4.396 7.613zM12.953 55.761l30.51 17.616L29.93 81.19l-12.582-7.264a8.815 8.815 0 0 1-4.395-7.613zm20.07 4.04V43.973L63.708 61.69l-13.676 7.933zM50 30.398l16.977 9.801v15.83L36.292 38.312Zm0-21.81c1.545 0 3.065.405 4.395 1.173l9.138 5.276-30.51 17.616-.033-15.61L45.605 9.76A8.805 8.805 0 0 1 50 8.586zM17.348 26.073l9.139-5.276v35.23l-13.534-7.776V33.686a8.814 8.814 0 0 1 4.395-7.612zM67.01 82.957 54.395 90.24A8.804 8.804 0 0 1 50 91.414a8.803 8.803 0 0 1-4.395-1.174l-9.139-5.276L66.977 67.35zm15.642-9.03-9.139 5.276V43.972l13.535 7.777v14.565a8.814 8.814 0 0 1-4.396 7.613zm3.443-53.817L57.838 3.797A15.69 15.69 0 0 0 50 1.703c-2.756 0-5.466.724-7.838 2.094L13.905 20.11a15.721 15.721 0 0 0-7.838 13.576v32.628a15.72 15.72 0 0 0 7.838 13.576l28.257 16.314A15.695 15.695 0 0 0 50 98.297c2.755 0 5.466-.723 7.838-2.093L86.094 79.89a15.72 15.72 0 0 0 7.839-13.576V33.686a15.72 15.72 0 0 0-7.839-13.576z" style="fill:#202ce0;fill-rule:evenodd;stroke:none;stroke-width:1"/></svg>